%TF.GenerationSoftware,KiCad,Pcbnew,(5.1.12)-1*%
%TF.CreationDate,2022-01-14T14:31:03-05:00*%
%TF.ProjectId,CANJunction_6x,43414e4a-756e-4637-9469-6f6e5f36782e,00*%
%TF.SameCoordinates,Original*%
%TF.FileFunction,Legend,Bot*%
%TF.FilePolarity,Positive*%
%FSLAX46Y46*%
G04 Gerber Fmt 4.6, Leading zero omitted, Abs format (unit mm)*
G04 Created by KiCad (PCBNEW (5.1.12)-1) date 2022-01-14 14:31:03*
%MOMM*%
%LPD*%
G01*
G04 APERTURE LIST*
%ADD10C,0.150000*%
G04 APERTURE END LIST*
D10*
X132500000Y-104357142D02*
X132547619Y-104404761D01*
X132690476Y-104452380D01*
X132785714Y-104452380D01*
X132928571Y-104404761D01*
X133023809Y-104309523D01*
X133071428Y-104214285D01*
X133119047Y-104023809D01*
X133119047Y-103880952D01*
X133071428Y-103690476D01*
X133023809Y-103595238D01*
X132928571Y-103500000D01*
X132785714Y-103452380D01*
X132690476Y-103452380D01*
X132547619Y-103500000D01*
X132500000Y-103547619D01*
X132119047Y-104166666D02*
X131642857Y-104166666D01*
X132214285Y-104452380D02*
X131880952Y-103452380D01*
X131547619Y-104452380D01*
X131214285Y-104452380D02*
X131214285Y-103452380D01*
X130642857Y-104452380D01*
X130642857Y-103452380D01*
X129880952Y-103452380D02*
X129880952Y-104166666D01*
X129928571Y-104309523D01*
X130023809Y-104404761D01*
X130166666Y-104452380D01*
X130261904Y-104452380D01*
X128976190Y-103785714D02*
X128976190Y-104452380D01*
X129404761Y-103785714D02*
X129404761Y-104309523D01*
X129357142Y-104404761D01*
X129261904Y-104452380D01*
X129119047Y-104452380D01*
X129023809Y-104404761D01*
X128976190Y-104357142D01*
X128500000Y-103785714D02*
X128500000Y-104452380D01*
X128500000Y-103880952D02*
X128452380Y-103833333D01*
X128357142Y-103785714D01*
X128214285Y-103785714D01*
X128119047Y-103833333D01*
X128071428Y-103928571D01*
X128071428Y-104452380D01*
X127166666Y-104404761D02*
X127261904Y-104452380D01*
X127452380Y-104452380D01*
X127547619Y-104404761D01*
X127595238Y-104357142D01*
X127642857Y-104261904D01*
X127642857Y-103976190D01*
X127595238Y-103880952D01*
X127547619Y-103833333D01*
X127452380Y-103785714D01*
X127261904Y-103785714D01*
X127166666Y-103833333D01*
X126880952Y-103785714D02*
X126500000Y-103785714D01*
X126738095Y-103452380D02*
X126738095Y-104309523D01*
X126690476Y-104404761D01*
X126595238Y-104452380D01*
X126500000Y-104452380D01*
X126166666Y-104452380D02*
X126166666Y-103785714D01*
X126166666Y-103452380D02*
X126214285Y-103500000D01*
X126166666Y-103547619D01*
X126119047Y-103500000D01*
X126166666Y-103452380D01*
X126166666Y-103547619D01*
X125547619Y-104452380D02*
X125642857Y-104404761D01*
X125690476Y-104357142D01*
X125738095Y-104261904D01*
X125738095Y-103976190D01*
X125690476Y-103880952D01*
X125642857Y-103833333D01*
X125547619Y-103785714D01*
X125404761Y-103785714D01*
X125309523Y-103833333D01*
X125261904Y-103880952D01*
X125214285Y-103976190D01*
X125214285Y-104261904D01*
X125261904Y-104357142D01*
X125309523Y-104404761D01*
X125404761Y-104452380D01*
X125547619Y-104452380D01*
X124785714Y-103785714D02*
X124785714Y-104452380D01*
X124785714Y-103880952D02*
X124738095Y-103833333D01*
X124642857Y-103785714D01*
X124500000Y-103785714D01*
X124404761Y-103833333D01*
X124357142Y-103928571D01*
X124357142Y-104452380D01*
X123595238Y-103452380D02*
X123595238Y-104166666D01*
X123642857Y-104309523D01*
X123738095Y-104404761D01*
X123880952Y-104452380D01*
X123976190Y-104452380D01*
X122690476Y-103785714D02*
X122690476Y-104452380D01*
X123119047Y-103785714D02*
X123119047Y-104309523D01*
X123071428Y-104404761D01*
X122976190Y-104452380D01*
X122833333Y-104452380D01*
X122738095Y-104404761D01*
X122690476Y-104357142D01*
X122214285Y-103785714D02*
X122214285Y-104452380D01*
X122214285Y-103880952D02*
X122166666Y-103833333D01*
X122071428Y-103785714D01*
X121928571Y-103785714D01*
X121833333Y-103833333D01*
X121785714Y-103928571D01*
X121785714Y-104452380D01*
X120880952Y-104404761D02*
X120976190Y-104452380D01*
X121166666Y-104452380D01*
X121261904Y-104404761D01*
X121309523Y-104357142D01*
X121357142Y-104261904D01*
X121357142Y-103976190D01*
X121309523Y-103880952D01*
X121261904Y-103833333D01*
X121166666Y-103785714D01*
X120976190Y-103785714D01*
X120880952Y-103833333D01*
X120595238Y-103785714D02*
X120214285Y-103785714D01*
X120452380Y-103452380D02*
X120452380Y-104309523D01*
X120404761Y-104404761D01*
X120309523Y-104452380D01*
X120214285Y-104452380D01*
X119880952Y-104452380D02*
X119880952Y-103785714D01*
X119880952Y-103452380D02*
X119928571Y-103500000D01*
X119880952Y-103547619D01*
X119833333Y-103500000D01*
X119880952Y-103452380D01*
X119880952Y-103547619D01*
X119261904Y-104452380D02*
X119357142Y-104404761D01*
X119404761Y-104357142D01*
X119452380Y-104261904D01*
X119452380Y-103976190D01*
X119404761Y-103880952D01*
X119357142Y-103833333D01*
X119261904Y-103785714D01*
X119119047Y-103785714D01*
X119023809Y-103833333D01*
X118976190Y-103880952D01*
X118928571Y-103976190D01*
X118928571Y-104261904D01*
X118976190Y-104357142D01*
X119023809Y-104404761D01*
X119119047Y-104452380D01*
X119261904Y-104452380D01*
X118500000Y-103785714D02*
X118500000Y-104452380D01*
X118500000Y-103880952D02*
X118452380Y-103833333D01*
X118357142Y-103785714D01*
X118214285Y-103785714D01*
X118119047Y-103833333D01*
X118071428Y-103928571D01*
X118071428Y-104452380D01*
X116928571Y-103785714D02*
X116738095Y-104452380D01*
X116547619Y-103976190D01*
X116357142Y-104452380D01*
X116166666Y-103785714D01*
X115785714Y-104452380D02*
X115785714Y-103452380D01*
X115357142Y-104452380D02*
X115357142Y-103928571D01*
X115404761Y-103833333D01*
X115500000Y-103785714D01*
X115642857Y-103785714D01*
X115738095Y-103833333D01*
X115785714Y-103880952D01*
X114452380Y-104452380D02*
X114452380Y-103928571D01*
X114500000Y-103833333D01*
X114595238Y-103785714D01*
X114785714Y-103785714D01*
X114880952Y-103833333D01*
X114452380Y-104404761D02*
X114547619Y-104452380D01*
X114785714Y-104452380D01*
X114880952Y-104404761D01*
X114928571Y-104309523D01*
X114928571Y-104214285D01*
X114880952Y-104119047D01*
X114785714Y-104071428D01*
X114547619Y-104071428D01*
X114452380Y-104023809D01*
X114119047Y-103785714D02*
X113738095Y-103785714D01*
X113976190Y-103452380D02*
X113976190Y-104309523D01*
X113928571Y-104404761D01*
X113833333Y-104452380D01*
X113738095Y-104452380D01*
X113357142Y-103452380D02*
X113452380Y-103642857D01*
X112976190Y-104404761D02*
X112880952Y-104452380D01*
X112690476Y-104452380D01*
X112595238Y-104404761D01*
X112547619Y-104309523D01*
X112547619Y-104261904D01*
X112595238Y-104166666D01*
X112690476Y-104119047D01*
X112833333Y-104119047D01*
X112928571Y-104071428D01*
X112976190Y-103976190D01*
X112976190Y-103928571D01*
X112928571Y-103833333D01*
X112833333Y-103785714D01*
X112690476Y-103785714D01*
X112595238Y-103833333D01*
X111452380Y-103785714D02*
X111214285Y-104452380D01*
X110976190Y-103785714D02*
X111214285Y-104452380D01*
X111309523Y-104690476D01*
X111357142Y-104738095D01*
X111452380Y-104785714D01*
X110452380Y-104452380D02*
X110547619Y-104404761D01*
X110595238Y-104357142D01*
X110642857Y-104261904D01*
X110642857Y-103976190D01*
X110595238Y-103880952D01*
X110547619Y-103833333D01*
X110452380Y-103785714D01*
X110309523Y-103785714D01*
X110214285Y-103833333D01*
X110166666Y-103880952D01*
X110119047Y-103976190D01*
X110119047Y-104261904D01*
X110166666Y-104357142D01*
X110214285Y-104404761D01*
X110309523Y-104452380D01*
X110452380Y-104452380D01*
X109261904Y-103785714D02*
X109261904Y-104452380D01*
X109690476Y-103785714D02*
X109690476Y-104309523D01*
X109642857Y-104404761D01*
X109547619Y-104452380D01*
X109404761Y-104452380D01*
X109309523Y-104404761D01*
X109261904Y-104357142D01*
X108785714Y-104452380D02*
X108785714Y-103785714D01*
X108785714Y-103976190D02*
X108738095Y-103880952D01*
X108690476Y-103833333D01*
X108595238Y-103785714D01*
X108500000Y-103785714D01*
X107547619Y-103785714D02*
X107166666Y-103785714D01*
X107404761Y-104452380D02*
X107404761Y-103595238D01*
X107357142Y-103500000D01*
X107261904Y-103452380D01*
X107166666Y-103452380D01*
X106404761Y-103785714D02*
X106404761Y-104452380D01*
X106833333Y-103785714D02*
X106833333Y-104309523D01*
X106785714Y-104404761D01*
X106690476Y-104452380D01*
X106547619Y-104452380D01*
X106452380Y-104404761D01*
X106404761Y-104357142D01*
X105928571Y-103785714D02*
X105928571Y-104452380D01*
X105928571Y-103880952D02*
X105880952Y-103833333D01*
X105785714Y-103785714D01*
X105642857Y-103785714D01*
X105547619Y-103833333D01*
X105500000Y-103928571D01*
X105500000Y-104452380D01*
X104595238Y-104404761D02*
X104690476Y-104452380D01*
X104880952Y-104452380D01*
X104976190Y-104404761D01*
X105023809Y-104357142D01*
X105071428Y-104261904D01*
X105071428Y-103976190D01*
X105023809Y-103880952D01*
X104976190Y-103833333D01*
X104880952Y-103785714D01*
X104690476Y-103785714D01*
X104595238Y-103833333D01*
X104309523Y-103785714D02*
X103928571Y-103785714D01*
X104166666Y-103452380D02*
X104166666Y-104309523D01*
X104119047Y-104404761D01*
X104023809Y-104452380D01*
X103928571Y-104452380D01*
X103595238Y-104452380D02*
X103595238Y-103785714D01*
X103595238Y-103452380D02*
X103642857Y-103500000D01*
X103595238Y-103547619D01*
X103547619Y-103500000D01*
X103595238Y-103452380D01*
X103595238Y-103547619D01*
X102976190Y-104452380D02*
X103071428Y-104404761D01*
X103119047Y-104357142D01*
X103166666Y-104261904D01*
X103166666Y-103976190D01*
X103119047Y-103880952D01*
X103071428Y-103833333D01*
X102976190Y-103785714D01*
X102833333Y-103785714D01*
X102738095Y-103833333D01*
X102690476Y-103880952D01*
X102642857Y-103976190D01*
X102642857Y-104261904D01*
X102690476Y-104357142D01*
X102738095Y-104404761D01*
X102833333Y-104452380D01*
X102976190Y-104452380D01*
X102214285Y-103785714D02*
X102214285Y-104452380D01*
X102214285Y-103880952D02*
X102166666Y-103833333D01*
X102071428Y-103785714D01*
X101928571Y-103785714D01*
X101833333Y-103833333D01*
X101785714Y-103928571D01*
X101785714Y-104452380D01*
X101166666Y-104357142D02*
X101119047Y-104404761D01*
X101166666Y-104452380D01*
X101214285Y-104404761D01*
X101166666Y-104357142D01*
X101166666Y-104452380D01*
X101357142Y-103500000D02*
X101261904Y-103452380D01*
X101023809Y-103452380D01*
X100928571Y-103500000D01*
X100880952Y-103595238D01*
X100880952Y-103690476D01*
X100928571Y-103785714D01*
X100976190Y-103833333D01*
X101071428Y-103880952D01*
X101119047Y-103928571D01*
X101166666Y-104023809D01*
X101166666Y-104071428D01*
M02*
