%TF.GenerationSoftware,KiCad,Pcbnew,(5.1.12)-1*%
%TF.CreationDate,2022-01-14T14:31:03-05:00*%
%TF.ProjectId,CANJunction_6x,43414e4a-756e-4637-9469-6f6e5f36782e,00*%
%TF.SameCoordinates,Original*%
%TF.FileFunction,Legend,Top*%
%TF.FilePolarity,Positive*%
%FSLAX46Y46*%
G04 Gerber Fmt 4.6, Leading zero omitted, Abs format (unit mm)*
G04 Created by KiCad (PCBNEW (5.1.12)-1) date 2022-01-14 14:31:03*
%MOMM*%
%LPD*%
G01*
G04 APERTURE LIST*
%ADD10C,0.150000*%
%ADD11C,0.010000*%
%ADD12C,0.120000*%
G04 APERTURE END LIST*
D10*
X132164166Y-81150000D02*
X132130833Y-81183333D01*
X132030833Y-81216666D01*
X131964166Y-81216666D01*
X131864166Y-81183333D01*
X131797500Y-81116666D01*
X131764166Y-81050000D01*
X131730833Y-80916666D01*
X131730833Y-80816666D01*
X131764166Y-80683333D01*
X131797500Y-80616666D01*
X131864166Y-80550000D01*
X131964166Y-80516666D01*
X132030833Y-80516666D01*
X132130833Y-80550000D01*
X132164166Y-80583333D01*
X132430833Y-81016666D02*
X132764166Y-81016666D01*
X132364166Y-81216666D02*
X132597500Y-80516666D01*
X132830833Y-81216666D01*
X133064166Y-81216666D02*
X133064166Y-80516666D01*
X133464166Y-81216666D01*
X133464166Y-80516666D01*
X133997500Y-80516666D02*
X133997500Y-81016666D01*
X133964166Y-81116666D01*
X133897500Y-81183333D01*
X133797500Y-81216666D01*
X133730833Y-81216666D01*
X134630833Y-80750000D02*
X134630833Y-81216666D01*
X134330833Y-80750000D02*
X134330833Y-81116666D01*
X134364166Y-81183333D01*
X134430833Y-81216666D01*
X134530833Y-81216666D01*
X134597500Y-81183333D01*
X134630833Y-81150000D01*
X134964166Y-80750000D02*
X134964166Y-81216666D01*
X134964166Y-80816666D02*
X134997500Y-80783333D01*
X135064166Y-80750000D01*
X135164166Y-80750000D01*
X135230833Y-80783333D01*
X135264166Y-80850000D01*
X135264166Y-81216666D01*
X135897500Y-81183333D02*
X135830833Y-81216666D01*
X135697500Y-81216666D01*
X135630833Y-81183333D01*
X135597500Y-81150000D01*
X135564166Y-81083333D01*
X135564166Y-80883333D01*
X135597500Y-80816666D01*
X135630833Y-80783333D01*
X135697500Y-80750000D01*
X135830833Y-80750000D01*
X135897500Y-80783333D01*
X136097500Y-80750000D02*
X136364166Y-80750000D01*
X136197500Y-80516666D02*
X136197500Y-81116666D01*
X136230833Y-81183333D01*
X136297500Y-81216666D01*
X136364166Y-81216666D01*
X136597500Y-81216666D02*
X136597500Y-80750000D01*
X136597500Y-80516666D02*
X136564166Y-80550000D01*
X136597500Y-80583333D01*
X136630833Y-80550000D01*
X136597500Y-80516666D01*
X136597500Y-80583333D01*
X137030833Y-81216666D02*
X136964166Y-81183333D01*
X136930833Y-81150000D01*
X136897500Y-81083333D01*
X136897500Y-80883333D01*
X136930833Y-80816666D01*
X136964166Y-80783333D01*
X137030833Y-80750000D01*
X137130833Y-80750000D01*
X137197500Y-80783333D01*
X137230833Y-80816666D01*
X137264166Y-80883333D01*
X137264166Y-81083333D01*
X137230833Y-81150000D01*
X137197500Y-81183333D01*
X137130833Y-81216666D01*
X137030833Y-81216666D01*
X137564166Y-80750000D02*
X137564166Y-81216666D01*
X137564166Y-80816666D02*
X137597500Y-80783333D01*
X137664166Y-80750000D01*
X137764166Y-80750000D01*
X137830833Y-80783333D01*
X137864166Y-80850000D01*
X137864166Y-81216666D01*
X138030833Y-81283333D02*
X138564166Y-81283333D01*
X139030833Y-80516666D02*
X138897500Y-80516666D01*
X138830833Y-80550000D01*
X138797500Y-80583333D01*
X138730833Y-80683333D01*
X138697500Y-80816666D01*
X138697500Y-81083333D01*
X138730833Y-81150000D01*
X138764166Y-81183333D01*
X138830833Y-81216666D01*
X138964166Y-81216666D01*
X139030833Y-81183333D01*
X139064166Y-81150000D01*
X139097500Y-81083333D01*
X139097500Y-80916666D01*
X139064166Y-80850000D01*
X139030833Y-80816666D01*
X138964166Y-80783333D01*
X138830833Y-80783333D01*
X138764166Y-80816666D01*
X138730833Y-80850000D01*
X138697500Y-80916666D01*
X139330833Y-81216666D02*
X139697500Y-80750000D01*
X139330833Y-80750000D02*
X139697500Y-81216666D01*
X132164166Y-82416666D02*
X131930833Y-82083333D01*
X131764166Y-82416666D02*
X131764166Y-81716666D01*
X132030833Y-81716666D01*
X132097500Y-81750000D01*
X132130833Y-81783333D01*
X132164166Y-81850000D01*
X132164166Y-81950000D01*
X132130833Y-82016666D01*
X132097500Y-82050000D01*
X132030833Y-82083333D01*
X131764166Y-82083333D01*
X132464166Y-82050000D02*
X132697500Y-82050000D01*
X132797500Y-82416666D02*
X132464166Y-82416666D01*
X132464166Y-81716666D01*
X132797500Y-81716666D01*
X132997500Y-81716666D02*
X133230833Y-82416666D01*
X133464166Y-81716666D01*
X133830833Y-81716666D02*
X133897500Y-81716666D01*
X133964166Y-81750000D01*
X133997500Y-81783333D01*
X134030833Y-81850000D01*
X134064166Y-81983333D01*
X134064166Y-82150000D01*
X134030833Y-82283333D01*
X133997500Y-82350000D01*
X133964166Y-82383333D01*
X133897500Y-82416666D01*
X133830833Y-82416666D01*
X133764166Y-82383333D01*
X133730833Y-82350000D01*
X133697500Y-82283333D01*
X133664166Y-82150000D01*
X133664166Y-81983333D01*
X133697500Y-81850000D01*
X133730833Y-81783333D01*
X133764166Y-81750000D01*
X133830833Y-81716666D01*
X134497500Y-81716666D02*
X134564166Y-81716666D01*
X134630833Y-81750000D01*
X134664166Y-81783333D01*
X134697500Y-81850000D01*
X134730833Y-81983333D01*
X134730833Y-82150000D01*
X134697500Y-82283333D01*
X134664166Y-82350000D01*
X134630833Y-82383333D01*
X134564166Y-82416666D01*
X134497500Y-82416666D01*
X134430833Y-82383333D01*
X134397500Y-82350000D01*
X134364166Y-82283333D01*
X134330833Y-82150000D01*
X134330833Y-81983333D01*
X134364166Y-81850000D01*
X134397500Y-81783333D01*
X134430833Y-81750000D01*
X134497500Y-81716666D01*
X135530833Y-81783333D02*
X135564166Y-81750000D01*
X135630833Y-81716666D01*
X135797500Y-81716666D01*
X135864166Y-81750000D01*
X135897500Y-81783333D01*
X135930833Y-81850000D01*
X135930833Y-81916666D01*
X135897500Y-82016666D01*
X135497500Y-82416666D01*
X135930833Y-82416666D01*
X136197500Y-81783333D02*
X136230833Y-81750000D01*
X136297500Y-81716666D01*
X136464166Y-81716666D01*
X136530833Y-81750000D01*
X136564166Y-81783333D01*
X136597500Y-81850000D01*
X136597500Y-81916666D01*
X136564166Y-82016666D01*
X136164166Y-82416666D01*
X136597500Y-82416666D01*
X137030833Y-81716666D02*
X137097500Y-81716666D01*
X137164166Y-81750000D01*
X137197500Y-81783333D01*
X137230833Y-81850000D01*
X137264166Y-81983333D01*
X137264166Y-82150000D01*
X137230833Y-82283333D01*
X137197500Y-82350000D01*
X137164166Y-82383333D01*
X137097500Y-82416666D01*
X137030833Y-82416666D01*
X136964166Y-82383333D01*
X136930833Y-82350000D01*
X136897500Y-82283333D01*
X136864166Y-82150000D01*
X136864166Y-81983333D01*
X136897500Y-81850000D01*
X136930833Y-81783333D01*
X136964166Y-81750000D01*
X137030833Y-81716666D01*
X137930833Y-82416666D02*
X137530833Y-82416666D01*
X137730833Y-82416666D02*
X137730833Y-81716666D01*
X137664166Y-81816666D01*
X137597500Y-81883333D01*
X137530833Y-81916666D01*
X138597500Y-82416666D02*
X138197500Y-82416666D01*
X138397500Y-82416666D02*
X138397500Y-81716666D01*
X138330833Y-81816666D01*
X138264166Y-81883333D01*
X138197500Y-81916666D01*
X139197500Y-81950000D02*
X139197500Y-82416666D01*
X139030833Y-81683333D02*
X138864166Y-82183333D01*
X139297500Y-82183333D01*
X112380952Y-87452380D02*
X112380952Y-88166666D01*
X112333333Y-88309523D01*
X112238095Y-88404761D01*
X112095238Y-88452380D01*
X112000000Y-88452380D01*
X113333333Y-88452380D02*
X112857142Y-88452380D01*
X112857142Y-87452380D01*
X114238095Y-88357142D02*
X114190476Y-88404761D01*
X114047619Y-88452380D01*
X113952380Y-88452380D01*
X113809523Y-88404761D01*
X113714285Y-88309523D01*
X113666666Y-88214285D01*
X113619047Y-88023809D01*
X113619047Y-87880952D01*
X113666666Y-87690476D01*
X113714285Y-87595238D01*
X113809523Y-87500000D01*
X113952380Y-87452380D01*
X114047619Y-87452380D01*
X114190476Y-87500000D01*
X114238095Y-87547619D01*
X114952380Y-87452380D02*
X114952380Y-88166666D01*
X114904761Y-88309523D01*
X114809523Y-88404761D01*
X114666666Y-88452380D01*
X114571428Y-88452380D01*
X115904761Y-88452380D02*
X115428571Y-88452380D01*
X115428571Y-87452380D01*
X116809523Y-88357142D02*
X116761904Y-88404761D01*
X116619047Y-88452380D01*
X116523809Y-88452380D01*
X116380952Y-88404761D01*
X116285714Y-88309523D01*
X116238095Y-88214285D01*
X116190476Y-88023809D01*
X116190476Y-87880952D01*
X116238095Y-87690476D01*
X116285714Y-87595238D01*
X116380952Y-87500000D01*
X116523809Y-87452380D01*
X116619047Y-87452380D01*
X116761904Y-87500000D01*
X116809523Y-87547619D01*
X117523809Y-87452380D02*
X117523809Y-88166666D01*
X117476190Y-88309523D01*
X117380952Y-88404761D01*
X117238095Y-88452380D01*
X117142857Y-88452380D01*
X118476190Y-88452380D02*
X118000000Y-88452380D01*
X118000000Y-87452380D01*
X119380952Y-88357142D02*
X119333333Y-88404761D01*
X119190476Y-88452380D01*
X119095238Y-88452380D01*
X118952380Y-88404761D01*
X118857142Y-88309523D01*
X118809523Y-88214285D01*
X118761904Y-88023809D01*
X118761904Y-87880952D01*
X118809523Y-87690476D01*
X118857142Y-87595238D01*
X118952380Y-87500000D01*
X119095238Y-87452380D01*
X119190476Y-87452380D01*
X119333333Y-87500000D01*
X119380952Y-87547619D01*
X120095238Y-87452380D02*
X120095238Y-88166666D01*
X120047619Y-88309523D01*
X119952380Y-88404761D01*
X119809523Y-88452380D01*
X119714285Y-88452380D01*
X121047619Y-88452380D02*
X120571428Y-88452380D01*
X120571428Y-87452380D01*
X121952380Y-88357142D02*
X121904761Y-88404761D01*
X121761904Y-88452380D01*
X121666666Y-88452380D01*
X121523809Y-88404761D01*
X121428571Y-88309523D01*
X121380952Y-88214285D01*
X121333333Y-88023809D01*
X121333333Y-87880952D01*
X121380952Y-87690476D01*
X121428571Y-87595238D01*
X121523809Y-87500000D01*
X121666666Y-87452380D01*
X121761904Y-87452380D01*
X121904761Y-87500000D01*
X121952380Y-87547619D01*
D11*
%TO.C,G\u002A\u002A\u002A*%
G36*
X135178453Y-94914634D02*
G01*
X135291098Y-95158395D01*
X135131829Y-95395375D01*
X134963334Y-95441667D01*
X134687333Y-95289274D01*
X134654873Y-95244626D01*
X134668621Y-94993706D01*
X134923086Y-94859653D01*
X135178453Y-94914634D01*
G37*
X135178453Y-94914634D02*
X135291098Y-95158395D01*
X135131829Y-95395375D01*
X134963334Y-95441667D01*
X134687333Y-95289274D01*
X134654873Y-95244626D01*
X134668621Y-94993706D01*
X134923086Y-94859653D01*
X135178453Y-94914634D01*
G36*
X135328489Y-93291194D02*
G01*
X135386667Y-93549159D01*
X135301627Y-93847599D01*
X135154878Y-93841730D01*
X134846998Y-93860423D01*
X134392873Y-94092852D01*
X134316782Y-94146738D01*
X133684901Y-94466328D01*
X132851363Y-94589982D01*
X132582697Y-94595000D01*
X131967608Y-94614694D01*
X131526747Y-94719319D01*
X131120031Y-94977189D01*
X130607372Y-95456621D01*
X130412500Y-95653334D01*
X129938048Y-96168233D01*
X129653490Y-96544710D01*
X129613128Y-96709578D01*
X129627258Y-96711667D01*
X129903805Y-96565139D01*
X130336912Y-96189035D01*
X130649348Y-95865000D01*
X131118653Y-95380390D01*
X131513000Y-95127870D01*
X132007893Y-95032298D01*
X132626824Y-95018334D01*
X133412456Y-94979328D01*
X133910154Y-94839293D01*
X134222500Y-94595000D01*
X134614513Y-94302449D01*
X135030883Y-94175188D01*
X135326947Y-94239519D01*
X135386667Y-94383334D01*
X135210578Y-94558894D01*
X134989251Y-94595000D01*
X134521579Y-94748733D01*
X134328334Y-94912500D01*
X133888208Y-95140338D01*
X133079934Y-95229076D01*
X132968105Y-95230000D01*
X132264951Y-95265730D01*
X131784495Y-95426885D01*
X131328445Y-95794413D01*
X131153334Y-95970834D01*
X130795208Y-96390766D01*
X130660161Y-96659254D01*
X130710932Y-96711667D01*
X131024899Y-96558495D01*
X131397365Y-96189401D01*
X131402817Y-96182500D01*
X131640725Y-95922343D01*
X131921626Y-95764881D01*
X132351404Y-95684646D01*
X133035944Y-95656170D01*
X133602863Y-95653333D01*
X134598779Y-95683770D01*
X135179096Y-95761236D01*
X135346087Y-95864970D01*
X135102021Y-95974209D01*
X134449171Y-96068190D01*
X133551665Y-96121343D01*
X132518390Y-96185675D01*
X131871717Y-96295341D01*
X131631959Y-96438286D01*
X131728730Y-96579132D01*
X132154708Y-96677493D01*
X132949857Y-96740936D01*
X133308211Y-96755786D01*
X135069167Y-96817500D01*
X135133978Y-97485083D01*
X135076666Y-98088805D01*
X134763448Y-98457591D01*
X134464372Y-98705433D01*
X134506371Y-98909814D01*
X134715814Y-99113387D01*
X135058221Y-99329536D01*
X135245094Y-99322684D01*
X135363939Y-99365503D01*
X135386667Y-99533889D01*
X135268790Y-99840623D01*
X134970341Y-99837979D01*
X134574095Y-99548030D01*
X134328334Y-99251667D01*
X133892773Y-98831801D01*
X133395240Y-98611019D01*
X132950740Y-98604546D01*
X132674280Y-98827606D01*
X132635000Y-99027508D01*
X132537805Y-99432712D01*
X132423334Y-99569167D01*
X132299724Y-99456519D01*
X132227423Y-98966711D01*
X132211667Y-98417492D01*
X132211667Y-97664167D01*
X132635000Y-97664167D01*
X132669313Y-97978222D01*
X132844427Y-98134897D01*
X133268599Y-98188321D01*
X133693334Y-98193334D01*
X134321444Y-98176177D01*
X134634793Y-98088620D01*
X134741641Y-97876534D01*
X134751667Y-97664167D01*
X134717354Y-97350112D01*
X134542240Y-97193437D01*
X134118068Y-97140013D01*
X133693334Y-97135000D01*
X133065223Y-97152157D01*
X132751874Y-97239713D01*
X132645026Y-97451800D01*
X132635000Y-97664167D01*
X132211667Y-97664167D01*
X132211667Y-97135000D01*
X130941667Y-97135000D01*
X130941667Y-98405000D01*
X130909534Y-99081475D01*
X130825591Y-99540101D01*
X130730000Y-99675000D01*
X130610495Y-99484371D01*
X130533745Y-98995838D01*
X130518334Y-98590749D01*
X130502853Y-97968700D01*
X130437570Y-97696371D01*
X130294218Y-97700696D01*
X130200834Y-97770000D01*
X129936263Y-97905000D01*
X129883334Y-97806435D01*
X130045472Y-97524493D01*
X130253750Y-97363621D01*
X130506528Y-97194568D01*
X130380140Y-97145535D01*
X130234762Y-97141437D01*
X129822923Y-97290619D01*
X129456037Y-97611250D01*
X129130772Y-97921398D01*
X128880055Y-97894665D01*
X128804630Y-97829856D01*
X128668880Y-97590435D01*
X128895439Y-97436793D01*
X129196937Y-97150303D01*
X129245092Y-96953604D01*
X129210062Y-96725436D01*
X129062999Y-96888863D01*
X129044935Y-96917204D01*
X128806089Y-97106137D01*
X128689610Y-97070166D01*
X128758206Y-96861606D01*
X129074110Y-96434519D01*
X129578970Y-95863261D01*
X129889070Y-95541712D01*
X131246937Y-94171667D01*
X132628885Y-94168426D01*
X133376751Y-94146111D01*
X133727038Y-94080515D01*
X133703742Y-93966938D01*
X133693334Y-93960000D01*
X133303188Y-93838557D01*
X132673390Y-93763235D01*
X132323195Y-93751575D01*
X131800194Y-93766791D01*
X131398639Y-93855682D01*
X131011313Y-94077393D01*
X130531000Y-94491066D01*
X129941945Y-95065135D01*
X129351213Y-95618149D01*
X128898440Y-95979394D01*
X128645545Y-96102350D01*
X128613334Y-96063322D01*
X128756433Y-95767350D01*
X129133481Y-95284783D01*
X129666104Y-94714798D01*
X129724584Y-94657125D01*
X130310592Y-94098276D01*
X130748298Y-93769220D01*
X131191094Y-93602778D01*
X131792370Y-93531770D01*
X132356871Y-93504282D01*
X133120818Y-93489311D01*
X133708418Y-93510993D01*
X134001768Y-93564592D01*
X134009544Y-93570655D01*
X134276407Y-93641631D01*
X134618477Y-93566351D01*
X134842766Y-93407297D01*
X134842628Y-93300936D01*
X134904588Y-93139790D01*
X135056675Y-93113334D01*
X135328489Y-93291194D01*
G37*
X135328489Y-93291194D02*
X135386667Y-93549159D01*
X135301627Y-93847599D01*
X135154878Y-93841730D01*
X134846998Y-93860423D01*
X134392873Y-94092852D01*
X134316782Y-94146738D01*
X133684901Y-94466328D01*
X132851363Y-94589982D01*
X132582697Y-94595000D01*
X131967608Y-94614694D01*
X131526747Y-94719319D01*
X131120031Y-94977189D01*
X130607372Y-95456621D01*
X130412500Y-95653334D01*
X129938048Y-96168233D01*
X129653490Y-96544710D01*
X129613128Y-96709578D01*
X129627258Y-96711667D01*
X129903805Y-96565139D01*
X130336912Y-96189035D01*
X130649348Y-95865000D01*
X131118653Y-95380390D01*
X131513000Y-95127870D01*
X132007893Y-95032298D01*
X132626824Y-95018334D01*
X133412456Y-94979328D01*
X133910154Y-94839293D01*
X134222500Y-94595000D01*
X134614513Y-94302449D01*
X135030883Y-94175188D01*
X135326947Y-94239519D01*
X135386667Y-94383334D01*
X135210578Y-94558894D01*
X134989251Y-94595000D01*
X134521579Y-94748733D01*
X134328334Y-94912500D01*
X133888208Y-95140338D01*
X133079934Y-95229076D01*
X132968105Y-95230000D01*
X132264951Y-95265730D01*
X131784495Y-95426885D01*
X131328445Y-95794413D01*
X131153334Y-95970834D01*
X130795208Y-96390766D01*
X130660161Y-96659254D01*
X130710932Y-96711667D01*
X131024899Y-96558495D01*
X131397365Y-96189401D01*
X131402817Y-96182500D01*
X131640725Y-95922343D01*
X131921626Y-95764881D01*
X132351404Y-95684646D01*
X133035944Y-95656170D01*
X133602863Y-95653333D01*
X134598779Y-95683770D01*
X135179096Y-95761236D01*
X135346087Y-95864970D01*
X135102021Y-95974209D01*
X134449171Y-96068190D01*
X133551665Y-96121343D01*
X132518390Y-96185675D01*
X131871717Y-96295341D01*
X131631959Y-96438286D01*
X131728730Y-96579132D01*
X132154708Y-96677493D01*
X132949857Y-96740936D01*
X133308211Y-96755786D01*
X135069167Y-96817500D01*
X135133978Y-97485083D01*
X135076666Y-98088805D01*
X134763448Y-98457591D01*
X134464372Y-98705433D01*
X134506371Y-98909814D01*
X134715814Y-99113387D01*
X135058221Y-99329536D01*
X135245094Y-99322684D01*
X135363939Y-99365503D01*
X135386667Y-99533889D01*
X135268790Y-99840623D01*
X134970341Y-99837979D01*
X134574095Y-99548030D01*
X134328334Y-99251667D01*
X133892773Y-98831801D01*
X133395240Y-98611019D01*
X132950740Y-98604546D01*
X132674280Y-98827606D01*
X132635000Y-99027508D01*
X132537805Y-99432712D01*
X132423334Y-99569167D01*
X132299724Y-99456519D01*
X132227423Y-98966711D01*
X132211667Y-98417492D01*
X132211667Y-97664167D01*
X132635000Y-97664167D01*
X132669313Y-97978222D01*
X132844427Y-98134897D01*
X133268599Y-98188321D01*
X133693334Y-98193334D01*
X134321444Y-98176177D01*
X134634793Y-98088620D01*
X134741641Y-97876534D01*
X134751667Y-97664167D01*
X134717354Y-97350112D01*
X134542240Y-97193437D01*
X134118068Y-97140013D01*
X133693334Y-97135000D01*
X133065223Y-97152157D01*
X132751874Y-97239713D01*
X132645026Y-97451800D01*
X132635000Y-97664167D01*
X132211667Y-97664167D01*
X132211667Y-97135000D01*
X130941667Y-97135000D01*
X130941667Y-98405000D01*
X130909534Y-99081475D01*
X130825591Y-99540101D01*
X130730000Y-99675000D01*
X130610495Y-99484371D01*
X130533745Y-98995838D01*
X130518334Y-98590749D01*
X130502853Y-97968700D01*
X130437570Y-97696371D01*
X130294218Y-97700696D01*
X130200834Y-97770000D01*
X129936263Y-97905000D01*
X129883334Y-97806435D01*
X130045472Y-97524493D01*
X130253750Y-97363621D01*
X130506528Y-97194568D01*
X130380140Y-97145535D01*
X130234762Y-97141437D01*
X129822923Y-97290619D01*
X129456037Y-97611250D01*
X129130772Y-97921398D01*
X128880055Y-97894665D01*
X128804630Y-97829856D01*
X128668880Y-97590435D01*
X128895439Y-97436793D01*
X129196937Y-97150303D01*
X129245092Y-96953604D01*
X129210062Y-96725436D01*
X129062999Y-96888863D01*
X129044935Y-96917204D01*
X128806089Y-97106137D01*
X128689610Y-97070166D01*
X128758206Y-96861606D01*
X129074110Y-96434519D01*
X129578970Y-95863261D01*
X129889070Y-95541712D01*
X131246937Y-94171667D01*
X132628885Y-94168426D01*
X133376751Y-94146111D01*
X133727038Y-94080515D01*
X133703742Y-93966938D01*
X133693334Y-93960000D01*
X133303188Y-93838557D01*
X132673390Y-93763235D01*
X132323195Y-93751575D01*
X131800194Y-93766791D01*
X131398639Y-93855682D01*
X131011313Y-94077393D01*
X130531000Y-94491066D01*
X129941945Y-95065135D01*
X129351213Y-95618149D01*
X128898440Y-95979394D01*
X128645545Y-96102350D01*
X128613334Y-96063322D01*
X128756433Y-95767350D01*
X129133481Y-95284783D01*
X129666104Y-94714798D01*
X129724584Y-94657125D01*
X130310592Y-94098276D01*
X130748298Y-93769220D01*
X131191094Y-93602778D01*
X131792370Y-93531770D01*
X132356871Y-93504282D01*
X133120818Y-93489311D01*
X133708418Y-93510993D01*
X134001768Y-93564592D01*
X134009544Y-93570655D01*
X134276407Y-93641631D01*
X134618477Y-93566351D01*
X134842766Y-93407297D01*
X134842628Y-93300936D01*
X134904588Y-93139790D01*
X135056675Y-93113334D01*
X135328489Y-93291194D01*
G36*
X101672979Y-94388661D02*
G01*
X101805443Y-94409481D01*
X101881877Y-94453051D01*
X101916398Y-94526626D01*
X101923333Y-94616166D01*
X101900390Y-94749638D01*
X101824099Y-94825006D01*
X101683267Y-94852804D01*
X101671450Y-94853220D01*
X101534982Y-94866044D01*
X101416288Y-94891029D01*
X101415333Y-94891333D01*
X101384262Y-94909459D01*
X101427796Y-94921469D01*
X101550135Y-94928158D01*
X101616417Y-94929447D01*
X101775603Y-94933850D01*
X101867927Y-94945035D01*
X101911173Y-94968152D01*
X101923131Y-95008353D01*
X101923333Y-95018333D01*
X101917523Y-95056868D01*
X101889876Y-95081537D01*
X101825069Y-95095404D01*
X101707775Y-95101534D01*
X101522672Y-95102993D01*
X101500000Y-95103000D01*
X101076667Y-95103000D01*
X101077315Y-94965417D01*
X101089554Y-94836216D01*
X101135680Y-94756160D01*
X101232042Y-94711724D01*
X101394990Y-94689386D01*
X101412646Y-94688057D01*
X101552464Y-94672544D01*
X101655062Y-94651091D01*
X101693675Y-94632196D01*
X101672362Y-94605967D01*
X101571931Y-94591746D01*
X101397134Y-94589967D01*
X101277750Y-94594135D01*
X101173502Y-94592925D01*
X101128764Y-94565669D01*
X101119009Y-94496653D01*
X101119000Y-94492404D01*
X101122073Y-94439092D01*
X101142605Y-94406796D01*
X101197561Y-94390249D01*
X101303908Y-94384183D01*
X101470367Y-94383333D01*
X101672979Y-94388661D01*
G37*
X101672979Y-94388661D02*
X101805443Y-94409481D01*
X101881877Y-94453051D01*
X101916398Y-94526626D01*
X101923333Y-94616166D01*
X101900390Y-94749638D01*
X101824099Y-94825006D01*
X101683267Y-94852804D01*
X101671450Y-94853220D01*
X101534982Y-94866044D01*
X101416288Y-94891029D01*
X101415333Y-94891333D01*
X101384262Y-94909459D01*
X101427796Y-94921469D01*
X101550135Y-94928158D01*
X101616417Y-94929447D01*
X101775603Y-94933850D01*
X101867927Y-94945035D01*
X101911173Y-94968152D01*
X101923131Y-95008353D01*
X101923333Y-95018333D01*
X101917523Y-95056868D01*
X101889876Y-95081537D01*
X101825069Y-95095404D01*
X101707775Y-95101534D01*
X101522672Y-95102993D01*
X101500000Y-95103000D01*
X101076667Y-95103000D01*
X101077315Y-94965417D01*
X101089554Y-94836216D01*
X101135680Y-94756160D01*
X101232042Y-94711724D01*
X101394990Y-94689386D01*
X101412646Y-94688057D01*
X101552464Y-94672544D01*
X101655062Y-94651091D01*
X101693675Y-94632196D01*
X101672362Y-94605967D01*
X101571931Y-94591746D01*
X101397134Y-94589967D01*
X101277750Y-94594135D01*
X101173502Y-94592925D01*
X101128764Y-94565669D01*
X101119009Y-94496653D01*
X101119000Y-94492404D01*
X101122073Y-94439092D01*
X101142605Y-94406796D01*
X101197561Y-94390249D01*
X101303908Y-94384183D01*
X101470367Y-94383333D01*
X101672979Y-94388661D01*
G36*
X101711667Y-96119000D02*
G01*
X101457667Y-96119000D01*
X101457667Y-95865000D01*
X101454529Y-95723040D01*
X101440871Y-95646330D01*
X101410323Y-95615557D01*
X101373907Y-95611000D01*
X101317968Y-95601389D01*
X101317072Y-95556460D01*
X101338369Y-95505167D01*
X101389022Y-95432537D01*
X101471559Y-95403018D01*
X101549128Y-95399333D01*
X101711667Y-95399333D01*
X101711667Y-96119000D01*
G37*
X101711667Y-96119000D02*
X101457667Y-96119000D01*
X101457667Y-95865000D01*
X101454529Y-95723040D01*
X101440871Y-95646330D01*
X101410323Y-95615557D01*
X101373907Y-95611000D01*
X101317968Y-95601389D01*
X101317072Y-95556460D01*
X101338369Y-95505167D01*
X101389022Y-95432537D01*
X101471559Y-95403018D01*
X101549128Y-95399333D01*
X101711667Y-95399333D01*
X101711667Y-96119000D01*
G36*
X101724994Y-96416652D02*
G01*
X101819658Y-96424572D01*
X101865326Y-96445038D01*
X101879833Y-96483994D01*
X101881000Y-96521167D01*
X101876155Y-96577353D01*
X101849109Y-96609584D01*
X101781091Y-96625191D01*
X101653332Y-96631505D01*
X101595250Y-96632792D01*
X101309500Y-96638584D01*
X101578434Y-96669083D01*
X101731897Y-96694829D01*
X101842885Y-96729621D01*
X101884702Y-96758541D01*
X101918302Y-96864764D01*
X101914997Y-96987025D01*
X101876483Y-97079983D01*
X101872533Y-97084200D01*
X101805077Y-97109790D01*
X101680785Y-97126453D01*
X101527063Y-97133733D01*
X101371316Y-97131178D01*
X101240951Y-97118334D01*
X101165139Y-97095915D01*
X101125988Y-97031631D01*
X101099741Y-96923333D01*
X101330667Y-96923333D01*
X101368504Y-96948580D01*
X101464235Y-96963724D01*
X101521167Y-96965667D01*
X101634776Y-96957258D01*
X101702925Y-96935985D01*
X101711667Y-96923333D01*
X101673829Y-96898087D01*
X101578098Y-96882942D01*
X101521167Y-96881000D01*
X101407557Y-96889408D01*
X101339408Y-96910682D01*
X101330667Y-96923333D01*
X101099741Y-96923333D01*
X101095950Y-96907691D01*
X101086215Y-96826237D01*
X101080140Y-96681286D01*
X101096417Y-96589366D01*
X101141640Y-96520320D01*
X101156492Y-96504841D01*
X101217860Y-96457135D01*
X101298397Y-96429772D01*
X101421536Y-96417599D01*
X101563500Y-96415333D01*
X101724994Y-96416652D01*
G37*
X101724994Y-96416652D02*
X101819658Y-96424572D01*
X101865326Y-96445038D01*
X101879833Y-96483994D01*
X101881000Y-96521167D01*
X101876155Y-96577353D01*
X101849109Y-96609584D01*
X101781091Y-96625191D01*
X101653332Y-96631505D01*
X101595250Y-96632792D01*
X101309500Y-96638584D01*
X101578434Y-96669083D01*
X101731897Y-96694829D01*
X101842885Y-96729621D01*
X101884702Y-96758541D01*
X101918302Y-96864764D01*
X101914997Y-96987025D01*
X101876483Y-97079983D01*
X101872533Y-97084200D01*
X101805077Y-97109790D01*
X101680785Y-97126453D01*
X101527063Y-97133733D01*
X101371316Y-97131178D01*
X101240951Y-97118334D01*
X101165139Y-97095915D01*
X101125988Y-97031631D01*
X101099741Y-96923333D01*
X101330667Y-96923333D01*
X101368504Y-96948580D01*
X101464235Y-96963724D01*
X101521167Y-96965667D01*
X101634776Y-96957258D01*
X101702925Y-96935985D01*
X101711667Y-96923333D01*
X101673829Y-96898087D01*
X101578098Y-96882942D01*
X101521167Y-96881000D01*
X101407557Y-96889408D01*
X101339408Y-96910682D01*
X101330667Y-96923333D01*
X101099741Y-96923333D01*
X101095950Y-96907691D01*
X101086215Y-96826237D01*
X101080140Y-96681286D01*
X101096417Y-96589366D01*
X101141640Y-96520320D01*
X101156492Y-96504841D01*
X101217860Y-96457135D01*
X101298397Y-96429772D01*
X101421536Y-96417599D01*
X101563500Y-96415333D01*
X101724994Y-96416652D01*
G36*
X101636333Y-97477038D02*
G01*
X101771734Y-97491478D01*
X101857893Y-97516288D01*
X101870920Y-97526583D01*
X101896592Y-97602039D01*
X101910818Y-97729893D01*
X101913524Y-97879208D01*
X101904632Y-98019049D01*
X101884067Y-98118479D01*
X101872433Y-98140155D01*
X101801733Y-98173129D01*
X101674781Y-98191519D01*
X101518639Y-98195821D01*
X101360368Y-98186532D01*
X101227030Y-98164145D01*
X101145685Y-98129157D01*
X101143190Y-98126809D01*
X101088191Y-98034191D01*
X101082226Y-97942932D01*
X101306967Y-97942932D01*
X101312214Y-97990968D01*
X101317706Y-97996929D01*
X101381912Y-98018080D01*
X101489281Y-98022783D01*
X101599885Y-98010857D01*
X101644461Y-97998397D01*
X101694687Y-97961839D01*
X101672646Y-97927233D01*
X101590479Y-97903103D01*
X101500000Y-97897000D01*
X101373365Y-97909525D01*
X101306967Y-97942932D01*
X101082226Y-97942932D01*
X101081836Y-97936975D01*
X101122688Y-97873553D01*
X101145816Y-97831288D01*
X101122688Y-97799088D01*
X101081329Y-97706935D01*
X101082700Y-97685333D01*
X101330667Y-97685333D01*
X101368223Y-97711842D01*
X101462042Y-97726587D01*
X101500000Y-97727667D01*
X101606037Y-97718277D01*
X101665015Y-97694823D01*
X101669333Y-97685333D01*
X101631777Y-97658824D01*
X101537957Y-97644079D01*
X101500000Y-97643000D01*
X101393963Y-97652389D01*
X101334984Y-97675844D01*
X101330667Y-97685333D01*
X101082700Y-97685333D01*
X101088451Y-97594782D01*
X101127467Y-97524467D01*
X101197258Y-97496681D01*
X101322838Y-97479564D01*
X101477948Y-97473041D01*
X101636333Y-97477038D01*
G37*
X101636333Y-97477038D02*
X101771734Y-97491478D01*
X101857893Y-97516288D01*
X101870920Y-97526583D01*
X101896592Y-97602039D01*
X101910818Y-97729893D01*
X101913524Y-97879208D01*
X101904632Y-98019049D01*
X101884067Y-98118479D01*
X101872433Y-98140155D01*
X101801733Y-98173129D01*
X101674781Y-98191519D01*
X101518639Y-98195821D01*
X101360368Y-98186532D01*
X101227030Y-98164145D01*
X101145685Y-98129157D01*
X101143190Y-98126809D01*
X101088191Y-98034191D01*
X101082226Y-97942932D01*
X101306967Y-97942932D01*
X101312214Y-97990968D01*
X101317706Y-97996929D01*
X101381912Y-98018080D01*
X101489281Y-98022783D01*
X101599885Y-98010857D01*
X101644461Y-97998397D01*
X101694687Y-97961839D01*
X101672646Y-97927233D01*
X101590479Y-97903103D01*
X101500000Y-97897000D01*
X101373365Y-97909525D01*
X101306967Y-97942932D01*
X101082226Y-97942932D01*
X101081836Y-97936975D01*
X101122688Y-97873553D01*
X101145816Y-97831288D01*
X101122688Y-97799088D01*
X101081329Y-97706935D01*
X101082700Y-97685333D01*
X101330667Y-97685333D01*
X101368223Y-97711842D01*
X101462042Y-97726587D01*
X101500000Y-97727667D01*
X101606037Y-97718277D01*
X101665015Y-97694823D01*
X101669333Y-97685333D01*
X101631777Y-97658824D01*
X101537957Y-97644079D01*
X101500000Y-97643000D01*
X101393963Y-97652389D01*
X101334984Y-97675844D01*
X101330667Y-97685333D01*
X101082700Y-97685333D01*
X101088451Y-97594782D01*
X101127467Y-97524467D01*
X101197258Y-97496681D01*
X101322838Y-97479564D01*
X101477948Y-97473041D01*
X101636333Y-97477038D01*
G36*
X102195127Y-93173519D02*
G01*
X102301935Y-93201011D01*
X102453830Y-93245505D01*
X102578633Y-93284539D01*
X102766970Y-93344580D01*
X102887544Y-93390405D01*
X102951774Y-93437773D01*
X102971079Y-93502443D01*
X102956881Y-93600173D01*
X102920597Y-93746722D01*
X102918809Y-93753978D01*
X102915521Y-93819366D01*
X102952582Y-93877592D01*
X103044883Y-93947639D01*
X103096680Y-93980769D01*
X103248482Y-94084318D01*
X103400524Y-94201247D01*
X103458363Y-94250682D01*
X103617560Y-94393993D01*
X103785539Y-94282830D01*
X103890997Y-94217503D01*
X103967387Y-94178271D01*
X103986176Y-94173062D01*
X104023490Y-94205700D01*
X104097746Y-94292503D01*
X104196734Y-94418694D01*
X104268232Y-94514401D01*
X104517630Y-94854345D01*
X104357236Y-95018604D01*
X104196841Y-95182863D01*
X104282589Y-95386348D01*
X104345823Y-95557276D01*
X104403432Y-95746466D01*
X104420057Y-95812083D01*
X104471778Y-96034333D01*
X104844333Y-96034333D01*
X104844333Y-96965667D01*
X104674092Y-96965667D01*
X104556280Y-96975364D01*
X104493975Y-97013076D01*
X104469273Y-97060917D01*
X104439863Y-97144803D01*
X104392514Y-97282859D01*
X104336167Y-97448967D01*
X104320707Y-97494833D01*
X104206719Y-97833500D01*
X104356193Y-97964986D01*
X104444497Y-98048045D01*
X104498153Y-98108891D01*
X104505667Y-98124145D01*
X104482694Y-98164727D01*
X104422037Y-98255970D01*
X104336091Y-98380265D01*
X104237250Y-98520003D01*
X104137906Y-98657576D01*
X104050454Y-98775375D01*
X104013854Y-98822893D01*
X103973870Y-98812410D01*
X103884746Y-98768510D01*
X103813039Y-98728179D01*
X103624587Y-98617739D01*
X103419543Y-98788636D01*
X103278938Y-98898691D01*
X103135023Y-99000281D01*
X103054485Y-99050605D01*
X102949862Y-99125896D01*
X102914761Y-99189750D01*
X102916993Y-99200374D01*
X102938495Y-99279870D01*
X102961571Y-99397479D01*
X102964408Y-99414732D01*
X102989300Y-99570396D01*
X102615066Y-99691935D01*
X102446178Y-99747013D01*
X102306550Y-99792973D01*
X102216740Y-99823027D01*
X102197040Y-99829932D01*
X102158091Y-99804154D01*
X102109565Y-99720010D01*
X102087272Y-99665445D01*
X102021298Y-99484500D01*
X101063368Y-99484500D01*
X100997769Y-99664417D01*
X100954080Y-99770832D01*
X100919054Y-99832972D01*
X100909168Y-99839906D01*
X100861483Y-99825878D01*
X100751768Y-99791707D01*
X100598581Y-99743209D01*
X100489880Y-99708486D01*
X100093593Y-99581492D01*
X100119371Y-99420280D01*
X100142649Y-99297432D01*
X100166475Y-99204296D01*
X100169920Y-99194519D01*
X100156309Y-99133205D01*
X100065961Y-99064964D01*
X100032428Y-99046996D01*
X99909376Y-98971634D01*
X99763905Y-98865205D01*
X99668793Y-98786491D01*
X99467420Y-98608961D01*
X99273887Y-98722379D01*
X99164023Y-98783144D01*
X99088619Y-98818032D01*
X99068632Y-98821482D01*
X98999738Y-98732557D01*
X98909608Y-98609890D01*
X98810862Y-98471522D01*
X98716119Y-98335491D01*
X98637997Y-98219838D01*
X98589115Y-98142602D01*
X98578998Y-98121503D01*
X98608780Y-98076584D01*
X98684467Y-98000799D01*
X98735161Y-97956387D01*
X98891327Y-97825275D01*
X98803828Y-97617721D01*
X98739351Y-97443791D01*
X98681039Y-97252729D01*
X98664609Y-97187917D01*
X98612888Y-96965667D01*
X98198000Y-96965667D01*
X98198000Y-96620904D01*
X99085618Y-96620904D01*
X99136227Y-97032473D01*
X99154106Y-97107723D01*
X99302915Y-97519570D01*
X99523583Y-97897093D01*
X99807240Y-98231497D01*
X100145019Y-98513986D01*
X100528051Y-98735764D01*
X100947469Y-98888034D01*
X100949667Y-98888612D01*
X101185601Y-98930394D01*
X101466361Y-98949601D01*
X101754986Y-98945547D01*
X102014512Y-98917547D01*
X102058833Y-98909186D01*
X102455861Y-98785990D01*
X102832976Y-98589124D01*
X103176270Y-98329371D01*
X103471837Y-98017513D01*
X103705769Y-97664334D01*
X103733552Y-97610721D01*
X103861227Y-97326006D01*
X103942765Y-97062146D01*
X103984336Y-96788706D01*
X103992113Y-96475253D01*
X103988195Y-96355058D01*
X103938216Y-95923440D01*
X103824095Y-95537105D01*
X103639758Y-95182435D01*
X103379132Y-94845812D01*
X103259083Y-94720048D01*
X102958990Y-94472953D01*
X102606028Y-94268548D01*
X102222751Y-94116205D01*
X101831710Y-94025295D01*
X101533535Y-94003068D01*
X101115610Y-94045688D01*
X100706236Y-94164770D01*
X100318318Y-94352224D01*
X99964762Y-94599958D01*
X99658473Y-94899881D01*
X99412355Y-95243900D01*
X99340388Y-95378167D01*
X99190169Y-95770818D01*
X99104422Y-96192708D01*
X99085618Y-96620904D01*
X98198000Y-96620904D01*
X98198000Y-96038972D01*
X98399083Y-96026069D01*
X98521548Y-96014257D01*
X98588108Y-95984185D01*
X98627407Y-95913106D01*
X98655221Y-95822667D01*
X98704094Y-95668658D01*
X98766744Y-95490308D01*
X98799628Y-95403218D01*
X98888981Y-95174270D01*
X98733990Y-95032232D01*
X98644647Y-94946017D01*
X98588639Y-94883624D01*
X98579000Y-94866631D01*
X98602718Y-94819407D01*
X98664955Y-94725352D01*
X98752333Y-94602385D01*
X98851475Y-94468424D01*
X98949001Y-94341386D01*
X99031535Y-94239190D01*
X99085699Y-94179753D01*
X99097869Y-94171667D01*
X99150147Y-94193258D01*
X99244849Y-94248022D01*
X99299127Y-94282830D01*
X99467106Y-94393993D01*
X99631611Y-94245372D01*
X99772899Y-94130801D01*
X99934905Y-94017348D01*
X99994329Y-93980591D01*
X100123341Y-93891300D01*
X100171079Y-93822042D01*
X100168846Y-93802681D01*
X100146784Y-93721641D01*
X100123028Y-93601760D01*
X100119228Y-93578825D01*
X100093307Y-93416719D01*
X100489737Y-93289252D01*
X100685385Y-93228819D01*
X100817510Y-93199154D01*
X100902508Y-93203071D01*
X100956777Y-93243387D01*
X100996712Y-93322917D01*
X101016943Y-93379782D01*
X101063054Y-93515500D01*
X102020646Y-93515500D01*
X102078170Y-93349348D01*
X102117395Y-93242411D01*
X102145924Y-93175923D01*
X102151047Y-93167842D01*
X102195127Y-93173519D01*
G37*
X102195127Y-93173519D02*
X102301935Y-93201011D01*
X102453830Y-93245505D01*
X102578633Y-93284539D01*
X102766970Y-93344580D01*
X102887544Y-93390405D01*
X102951774Y-93437773D01*
X102971079Y-93502443D01*
X102956881Y-93600173D01*
X102920597Y-93746722D01*
X102918809Y-93753978D01*
X102915521Y-93819366D01*
X102952582Y-93877592D01*
X103044883Y-93947639D01*
X103096680Y-93980769D01*
X103248482Y-94084318D01*
X103400524Y-94201247D01*
X103458363Y-94250682D01*
X103617560Y-94393993D01*
X103785539Y-94282830D01*
X103890997Y-94217503D01*
X103967387Y-94178271D01*
X103986176Y-94173062D01*
X104023490Y-94205700D01*
X104097746Y-94292503D01*
X104196734Y-94418694D01*
X104268232Y-94514401D01*
X104517630Y-94854345D01*
X104357236Y-95018604D01*
X104196841Y-95182863D01*
X104282589Y-95386348D01*
X104345823Y-95557276D01*
X104403432Y-95746466D01*
X104420057Y-95812083D01*
X104471778Y-96034333D01*
X104844333Y-96034333D01*
X104844333Y-96965667D01*
X104674092Y-96965667D01*
X104556280Y-96975364D01*
X104493975Y-97013076D01*
X104469273Y-97060917D01*
X104439863Y-97144803D01*
X104392514Y-97282859D01*
X104336167Y-97448967D01*
X104320707Y-97494833D01*
X104206719Y-97833500D01*
X104356193Y-97964986D01*
X104444497Y-98048045D01*
X104498153Y-98108891D01*
X104505667Y-98124145D01*
X104482694Y-98164727D01*
X104422037Y-98255970D01*
X104336091Y-98380265D01*
X104237250Y-98520003D01*
X104137906Y-98657576D01*
X104050454Y-98775375D01*
X104013854Y-98822893D01*
X103973870Y-98812410D01*
X103884746Y-98768510D01*
X103813039Y-98728179D01*
X103624587Y-98617739D01*
X103419543Y-98788636D01*
X103278938Y-98898691D01*
X103135023Y-99000281D01*
X103054485Y-99050605D01*
X102949862Y-99125896D01*
X102914761Y-99189750D01*
X102916993Y-99200374D01*
X102938495Y-99279870D01*
X102961571Y-99397479D01*
X102964408Y-99414732D01*
X102989300Y-99570396D01*
X102615066Y-99691935D01*
X102446178Y-99747013D01*
X102306550Y-99792973D01*
X102216740Y-99823027D01*
X102197040Y-99829932D01*
X102158091Y-99804154D01*
X102109565Y-99720010D01*
X102087272Y-99665445D01*
X102021298Y-99484500D01*
X101063368Y-99484500D01*
X100997769Y-99664417D01*
X100954080Y-99770832D01*
X100919054Y-99832972D01*
X100909168Y-99839906D01*
X100861483Y-99825878D01*
X100751768Y-99791707D01*
X100598581Y-99743209D01*
X100489880Y-99708486D01*
X100093593Y-99581492D01*
X100119371Y-99420280D01*
X100142649Y-99297432D01*
X100166475Y-99204296D01*
X100169920Y-99194519D01*
X100156309Y-99133205D01*
X100065961Y-99064964D01*
X100032428Y-99046996D01*
X99909376Y-98971634D01*
X99763905Y-98865205D01*
X99668793Y-98786491D01*
X99467420Y-98608961D01*
X99273887Y-98722379D01*
X99164023Y-98783144D01*
X99088619Y-98818032D01*
X99068632Y-98821482D01*
X98999738Y-98732557D01*
X98909608Y-98609890D01*
X98810862Y-98471522D01*
X98716119Y-98335491D01*
X98637997Y-98219838D01*
X98589115Y-98142602D01*
X98578998Y-98121503D01*
X98608780Y-98076584D01*
X98684467Y-98000799D01*
X98735161Y-97956387D01*
X98891327Y-97825275D01*
X98803828Y-97617721D01*
X98739351Y-97443791D01*
X98681039Y-97252729D01*
X98664609Y-97187917D01*
X98612888Y-96965667D01*
X98198000Y-96965667D01*
X98198000Y-96620904D01*
X99085618Y-96620904D01*
X99136227Y-97032473D01*
X99154106Y-97107723D01*
X99302915Y-97519570D01*
X99523583Y-97897093D01*
X99807240Y-98231497D01*
X100145019Y-98513986D01*
X100528051Y-98735764D01*
X100947469Y-98888034D01*
X100949667Y-98888612D01*
X101185601Y-98930394D01*
X101466361Y-98949601D01*
X101754986Y-98945547D01*
X102014512Y-98917547D01*
X102058833Y-98909186D01*
X102455861Y-98785990D01*
X102832976Y-98589124D01*
X103176270Y-98329371D01*
X103471837Y-98017513D01*
X103705769Y-97664334D01*
X103733552Y-97610721D01*
X103861227Y-97326006D01*
X103942765Y-97062146D01*
X103984336Y-96788706D01*
X103992113Y-96475253D01*
X103988195Y-96355058D01*
X103938216Y-95923440D01*
X103824095Y-95537105D01*
X103639758Y-95182435D01*
X103379132Y-94845812D01*
X103259083Y-94720048D01*
X102958990Y-94472953D01*
X102606028Y-94268548D01*
X102222751Y-94116205D01*
X101831710Y-94025295D01*
X101533535Y-94003068D01*
X101115610Y-94045688D01*
X100706236Y-94164770D01*
X100318318Y-94352224D01*
X99964762Y-94599958D01*
X99658473Y-94899881D01*
X99412355Y-95243900D01*
X99340388Y-95378167D01*
X99190169Y-95770818D01*
X99104422Y-96192708D01*
X99085618Y-96620904D01*
X98198000Y-96620904D01*
X98198000Y-96038972D01*
X98399083Y-96026069D01*
X98521548Y-96014257D01*
X98588108Y-95984185D01*
X98627407Y-95913106D01*
X98655221Y-95822667D01*
X98704094Y-95668658D01*
X98766744Y-95490308D01*
X98799628Y-95403218D01*
X98888981Y-95174270D01*
X98733990Y-95032232D01*
X98644647Y-94946017D01*
X98588639Y-94883624D01*
X98579000Y-94866631D01*
X98602718Y-94819407D01*
X98664955Y-94725352D01*
X98752333Y-94602385D01*
X98851475Y-94468424D01*
X98949001Y-94341386D01*
X99031535Y-94239190D01*
X99085699Y-94179753D01*
X99097869Y-94171667D01*
X99150147Y-94193258D01*
X99244849Y-94248022D01*
X99299127Y-94282830D01*
X99467106Y-94393993D01*
X99631611Y-94245372D01*
X99772899Y-94130801D01*
X99934905Y-94017348D01*
X99994329Y-93980591D01*
X100123341Y-93891300D01*
X100171079Y-93822042D01*
X100168846Y-93802681D01*
X100146784Y-93721641D01*
X100123028Y-93601760D01*
X100119228Y-93578825D01*
X100093307Y-93416719D01*
X100489737Y-93289252D01*
X100685385Y-93228819D01*
X100817510Y-93199154D01*
X100902508Y-93203071D01*
X100956777Y-93243387D01*
X100996712Y-93322917D01*
X101016943Y-93379782D01*
X101063054Y-93515500D01*
X102020646Y-93515500D01*
X102078170Y-93349348D01*
X102117395Y-93242411D01*
X102145924Y-93175923D01*
X102151047Y-93167842D01*
X102195127Y-93173519D01*
D12*
%TO.C,J4*%
X128250000Y-92900000D02*
X128250000Y-80800000D01*
X105750000Y-80800000D02*
X105750000Y-92900000D01*
X128250000Y-92900000D02*
X105750000Y-92900000D01*
X128250000Y-80800000D02*
X105750000Y-80800000D01*
%TO.C,J3*%
X105750000Y-93600000D02*
X105750000Y-105700000D01*
X128250000Y-105700000D02*
X128250000Y-93600000D01*
X105750000Y-93600000D02*
X128250000Y-93600000D01*
X105750000Y-105700000D02*
X128250000Y-105700000D01*
%TO.C,J2*%
X102400000Y-92250000D02*
X102400000Y-83750000D01*
X90300000Y-92250000D02*
X90300000Y-83750000D01*
X90300000Y-92250000D02*
X102400000Y-92250000D01*
X102400000Y-83750000D02*
X90300000Y-83750000D01*
%TO.C,J1*%
X131600000Y-83750000D02*
X131600000Y-92250000D01*
X143700000Y-83750000D02*
X143700000Y-92250000D01*
X143700000Y-83750000D02*
X131600000Y-83750000D01*
X131600000Y-92250000D02*
X143700000Y-92250000D01*
%TO.C,J4*%
D10*
X125416666Y-81202380D02*
X125416666Y-81916666D01*
X125369047Y-82059523D01*
X125273809Y-82154761D01*
X125130952Y-82202380D01*
X125035714Y-82202380D01*
X126321428Y-81535714D02*
X126321428Y-82202380D01*
X126083333Y-81154761D02*
X125845238Y-81869047D01*
X126464285Y-81869047D01*
%TO.C,J3*%
X107916666Y-104202380D02*
X107916666Y-104916666D01*
X107869047Y-105059523D01*
X107773809Y-105154761D01*
X107630952Y-105202380D01*
X107535714Y-105202380D01*
X108297619Y-104202380D02*
X108916666Y-104202380D01*
X108583333Y-104583333D01*
X108726190Y-104583333D01*
X108821428Y-104630952D01*
X108869047Y-104678571D01*
X108916666Y-104773809D01*
X108916666Y-105011904D01*
X108869047Y-105107142D01*
X108821428Y-105154761D01*
X108726190Y-105202380D01*
X108440476Y-105202380D01*
X108345238Y-105154761D01*
X108297619Y-105107142D01*
%TO.C,J2*%
X90702380Y-86583333D02*
X91416666Y-86583333D01*
X91559523Y-86630952D01*
X91654761Y-86726190D01*
X91702380Y-86869047D01*
X91702380Y-86964285D01*
X90797619Y-86154761D02*
X90750000Y-86107142D01*
X90702380Y-86011904D01*
X90702380Y-85773809D01*
X90750000Y-85678571D01*
X90797619Y-85630952D01*
X90892857Y-85583333D01*
X90988095Y-85583333D01*
X91130952Y-85630952D01*
X91702380Y-86202380D01*
X91702380Y-85583333D01*
%TO.C,J1*%
X142202380Y-90083333D02*
X142916666Y-90083333D01*
X143059523Y-90130952D01*
X143154761Y-90226190D01*
X143202380Y-90369047D01*
X143202380Y-90464285D01*
X143202380Y-89083333D02*
X143202380Y-89654761D01*
X143202380Y-89369047D02*
X142202380Y-89369047D01*
X142345238Y-89464285D01*
X142440476Y-89559523D01*
X142488095Y-89654761D01*
%TD*%
M02*
