M48
METRIC
T1C1.300
T2C5.080
%
G90
G05
T1
X95.0Y-87.0
X95.0Y-90.5
X100.1Y-87.0
X100.1Y-90.5
X107.5Y-85.5
X107.5Y-90.6
X109.0Y-95.9
X109.0Y-101.0
X111.0Y-85.5
X111.0Y-90.6
X112.5Y-95.9
X112.5Y-101.0
X114.5Y-85.5
X114.5Y-90.6
X116.0Y-95.9
X116.0Y-101.0
X118.0Y-85.5
X118.0Y-90.6
X119.5Y-95.9
X119.5Y-101.0
X121.5Y-85.5
X121.5Y-90.6
X123.0Y-95.9
X123.0Y-101.0
X125.0Y-85.5
X125.0Y-90.6
X126.5Y-95.9
X126.5Y-101.0
X133.9Y-85.5
X133.9Y-89.0
X139.0Y-85.5
X139.0Y-89.0
T2
X94.5Y-101.5
X139.5Y-101.5
T0
M30
