%TF.GenerationSoftware,KiCad,Pcbnew,(5.1.12)-1*%
%TF.CreationDate,2022-01-14T14:31:03-05:00*%
%TF.ProjectId,CANJunction_6x,43414e4a-756e-4637-9469-6f6e5f36782e,00*%
%TF.SameCoordinates,Original*%
%TF.FileFunction,Other,Comment*%
%FSLAX46Y46*%
G04 Gerber Fmt 4.6, Leading zero omitted, Abs format (unit mm)*
G04 Created by KiCad (PCBNEW (5.1.12)-1) date 2022-01-14 14:31:03*
%MOMM*%
%LPD*%
G01*
G04 APERTURE LIST*
%ADD10C,0.150000*%
G04 APERTURE END LIST*
D10*
X102000000Y-74000000D02*
X113000000Y-87000000D01*
X76500000Y-74000000D02*
X102000000Y-74000000D01*
X77452380Y-71127380D02*
X77452380Y-70127380D01*
X77833333Y-70127380D01*
X77928571Y-70175000D01*
X77976190Y-70222619D01*
X78023809Y-70317857D01*
X78023809Y-70460714D01*
X77976190Y-70555952D01*
X77928571Y-70603571D01*
X77833333Y-70651190D01*
X77452380Y-70651190D01*
X78595238Y-71127380D02*
X78500000Y-71079761D01*
X78452380Y-70984523D01*
X78452380Y-70127380D01*
X79404761Y-71127380D02*
X79404761Y-70603571D01*
X79357142Y-70508333D01*
X79261904Y-70460714D01*
X79071428Y-70460714D01*
X78976190Y-70508333D01*
X79404761Y-71079761D02*
X79309523Y-71127380D01*
X79071428Y-71127380D01*
X78976190Y-71079761D01*
X78928571Y-70984523D01*
X78928571Y-70889285D01*
X78976190Y-70794047D01*
X79071428Y-70746428D01*
X79309523Y-70746428D01*
X79404761Y-70698809D01*
X80309523Y-71079761D02*
X80214285Y-71127380D01*
X80023809Y-71127380D01*
X79928571Y-71079761D01*
X79880952Y-71032142D01*
X79833333Y-70936904D01*
X79833333Y-70651190D01*
X79880952Y-70555952D01*
X79928571Y-70508333D01*
X80023809Y-70460714D01*
X80214285Y-70460714D01*
X80309523Y-70508333D01*
X81119047Y-71079761D02*
X81023809Y-71127380D01*
X80833333Y-71127380D01*
X80738095Y-71079761D01*
X80690476Y-70984523D01*
X80690476Y-70603571D01*
X80738095Y-70508333D01*
X80833333Y-70460714D01*
X81023809Y-70460714D01*
X81119047Y-70508333D01*
X81166666Y-70603571D01*
X81166666Y-70698809D01*
X80690476Y-70794047D01*
X82547619Y-70127380D02*
X82738095Y-70127380D01*
X82833333Y-70175000D01*
X82928571Y-70270238D01*
X82976190Y-70460714D01*
X82976190Y-70794047D01*
X82928571Y-70984523D01*
X82833333Y-71079761D01*
X82738095Y-71127380D01*
X82547619Y-71127380D01*
X82452380Y-71079761D01*
X82357142Y-70984523D01*
X82309523Y-70794047D01*
X82309523Y-70460714D01*
X82357142Y-70270238D01*
X82452380Y-70175000D01*
X82547619Y-70127380D01*
X83404761Y-71127380D02*
X83404761Y-70460714D01*
X83404761Y-70651190D02*
X83452380Y-70555952D01*
X83500000Y-70508333D01*
X83595238Y-70460714D01*
X83690476Y-70460714D01*
X84452380Y-71127380D02*
X84452380Y-70127380D01*
X84452380Y-71079761D02*
X84357142Y-71127380D01*
X84166666Y-71127380D01*
X84071428Y-71079761D01*
X84023809Y-71032142D01*
X83976190Y-70936904D01*
X83976190Y-70651190D01*
X84023809Y-70555952D01*
X84071428Y-70508333D01*
X84166666Y-70460714D01*
X84357142Y-70460714D01*
X84452380Y-70508333D01*
X85309523Y-71079761D02*
X85214285Y-71127380D01*
X85023809Y-71127380D01*
X84928571Y-71079761D01*
X84880952Y-70984523D01*
X84880952Y-70603571D01*
X84928571Y-70508333D01*
X85023809Y-70460714D01*
X85214285Y-70460714D01*
X85309523Y-70508333D01*
X85357142Y-70603571D01*
X85357142Y-70698809D01*
X84880952Y-70794047D01*
X85785714Y-71127380D02*
X85785714Y-70460714D01*
X85785714Y-70651190D02*
X85833333Y-70555952D01*
X85880952Y-70508333D01*
X85976190Y-70460714D01*
X86071428Y-70460714D01*
X87166666Y-71127380D02*
X87166666Y-70127380D01*
X87738095Y-71127380D01*
X87738095Y-70127380D01*
X88642857Y-70460714D02*
X88642857Y-71127380D01*
X88214285Y-70460714D02*
X88214285Y-70984523D01*
X88261904Y-71079761D01*
X88357142Y-71127380D01*
X88500000Y-71127380D01*
X88595238Y-71079761D01*
X88642857Y-71032142D01*
X89119047Y-71127380D02*
X89119047Y-70460714D01*
X89119047Y-70555952D02*
X89166666Y-70508333D01*
X89261904Y-70460714D01*
X89404761Y-70460714D01*
X89500000Y-70508333D01*
X89547619Y-70603571D01*
X89547619Y-71127380D01*
X89547619Y-70603571D02*
X89595238Y-70508333D01*
X89690476Y-70460714D01*
X89833333Y-70460714D01*
X89928571Y-70508333D01*
X89976190Y-70603571D01*
X89976190Y-71127380D01*
X90452380Y-71127380D02*
X90452380Y-70127380D01*
X90452380Y-70508333D02*
X90547619Y-70460714D01*
X90738095Y-70460714D01*
X90833333Y-70508333D01*
X90880952Y-70555952D01*
X90928571Y-70651190D01*
X90928571Y-70936904D01*
X90880952Y-71032142D01*
X90833333Y-71079761D01*
X90738095Y-71127380D01*
X90547619Y-71127380D01*
X90452380Y-71079761D01*
X91738095Y-71079761D02*
X91642857Y-71127380D01*
X91452380Y-71127380D01*
X91357142Y-71079761D01*
X91309523Y-70984523D01*
X91309523Y-70603571D01*
X91357142Y-70508333D01*
X91452380Y-70460714D01*
X91642857Y-70460714D01*
X91738095Y-70508333D01*
X91785714Y-70603571D01*
X91785714Y-70698809D01*
X91309523Y-70794047D01*
X92214285Y-71127380D02*
X92214285Y-70460714D01*
X92214285Y-70651190D02*
X92261904Y-70555952D01*
X92309523Y-70508333D01*
X92404761Y-70460714D01*
X92500000Y-70460714D01*
X93595238Y-71127380D02*
X93595238Y-70460714D01*
X93595238Y-70127380D02*
X93547619Y-70175000D01*
X93595238Y-70222619D01*
X93642857Y-70175000D01*
X93595238Y-70127380D01*
X93595238Y-70222619D01*
X94071428Y-70460714D02*
X94071428Y-71127380D01*
X94071428Y-70555952D02*
X94119047Y-70508333D01*
X94214285Y-70460714D01*
X94357142Y-70460714D01*
X94452380Y-70508333D01*
X94500000Y-70603571D01*
X94500000Y-71127380D01*
X95738095Y-70460714D02*
X95738095Y-71460714D01*
X95738095Y-70508333D02*
X95833333Y-70460714D01*
X96023809Y-70460714D01*
X96119047Y-70508333D01*
X96166666Y-70555952D01*
X96214285Y-70651190D01*
X96214285Y-70936904D01*
X96166666Y-71032142D01*
X96119047Y-71079761D01*
X96023809Y-71127380D01*
X95833333Y-71127380D01*
X95738095Y-71079761D01*
X96785714Y-71127380D02*
X96690476Y-71079761D01*
X96642857Y-70984523D01*
X96642857Y-70127380D01*
X97595238Y-71127380D02*
X97595238Y-70603571D01*
X97547619Y-70508333D01*
X97452380Y-70460714D01*
X97261904Y-70460714D01*
X97166666Y-70508333D01*
X97595238Y-71079761D02*
X97500000Y-71127380D01*
X97261904Y-71127380D01*
X97166666Y-71079761D01*
X97119047Y-70984523D01*
X97119047Y-70889285D01*
X97166666Y-70794047D01*
X97261904Y-70746428D01*
X97500000Y-70746428D01*
X97595238Y-70698809D01*
X98500000Y-71079761D02*
X98404761Y-71127380D01*
X98214285Y-71127380D01*
X98119047Y-71079761D01*
X98071428Y-71032142D01*
X98023809Y-70936904D01*
X98023809Y-70651190D01*
X98071428Y-70555952D01*
X98119047Y-70508333D01*
X98214285Y-70460714D01*
X98404761Y-70460714D01*
X98500000Y-70508333D01*
X99309523Y-71079761D02*
X99214285Y-71127380D01*
X99023809Y-71127380D01*
X98928571Y-71079761D01*
X98880952Y-70984523D01*
X98880952Y-70603571D01*
X98928571Y-70508333D01*
X99023809Y-70460714D01*
X99214285Y-70460714D01*
X99309523Y-70508333D01*
X99357142Y-70603571D01*
X99357142Y-70698809D01*
X98880952Y-70794047D01*
X100690476Y-71127380D02*
X100595238Y-71079761D01*
X100547619Y-71032142D01*
X100500000Y-70936904D01*
X100500000Y-70651190D01*
X100547619Y-70555952D01*
X100595238Y-70508333D01*
X100690476Y-70460714D01*
X100833333Y-70460714D01*
X100928571Y-70508333D01*
X100976190Y-70555952D01*
X101023809Y-70651190D01*
X101023809Y-70936904D01*
X100976190Y-71032142D01*
X100928571Y-71079761D01*
X100833333Y-71127380D01*
X100690476Y-71127380D01*
X101309523Y-70460714D02*
X101690476Y-70460714D01*
X101452380Y-71127380D02*
X101452380Y-70270238D01*
X101500000Y-70175000D01*
X101595238Y-70127380D01*
X101690476Y-70127380D01*
X75976190Y-72110714D02*
X76357142Y-72110714D01*
X76119047Y-71777380D02*
X76119047Y-72634523D01*
X76166666Y-72729761D01*
X76261904Y-72777380D01*
X76357142Y-72777380D01*
X77071428Y-72729761D02*
X76976190Y-72777380D01*
X76785714Y-72777380D01*
X76690476Y-72729761D01*
X76642857Y-72634523D01*
X76642857Y-72253571D01*
X76690476Y-72158333D01*
X76785714Y-72110714D01*
X76976190Y-72110714D01*
X77071428Y-72158333D01*
X77119047Y-72253571D01*
X77119047Y-72348809D01*
X76642857Y-72444047D01*
X77452380Y-72777380D02*
X77976190Y-72110714D01*
X77452380Y-72110714D02*
X77976190Y-72777380D01*
X78214285Y-72110714D02*
X78595238Y-72110714D01*
X78357142Y-71777380D02*
X78357142Y-72634523D01*
X78404761Y-72729761D01*
X78499999Y-72777380D01*
X78595238Y-72777380D01*
X79642857Y-71777380D02*
X79642857Y-71967857D01*
X80023809Y-71777380D02*
X80023809Y-71967857D01*
X80738095Y-71777380D02*
X80738095Y-72491666D01*
X80690476Y-72634523D01*
X80595238Y-72729761D01*
X80452380Y-72777380D01*
X80357142Y-72777380D01*
X81690476Y-72777380D02*
X81214285Y-72777380D01*
X81214285Y-71777380D01*
X82595238Y-72682142D02*
X82547619Y-72729761D01*
X82404761Y-72777380D01*
X82309523Y-72777380D01*
X82166666Y-72729761D01*
X82071428Y-72634523D01*
X82023809Y-72539285D01*
X81976190Y-72348809D01*
X81976190Y-72205952D01*
X82023809Y-72015476D01*
X82071428Y-71920238D01*
X82166666Y-71825000D01*
X82309523Y-71777380D01*
X82404761Y-71777380D01*
X82547619Y-71825000D01*
X82595238Y-71872619D01*
X83309523Y-71777380D02*
X83309523Y-72491666D01*
X83261904Y-72634523D01*
X83166666Y-72729761D01*
X83023809Y-72777380D01*
X82928571Y-72777380D01*
X84261904Y-72777380D02*
X83785714Y-72777380D01*
X83785714Y-71777380D01*
X85166666Y-72682142D02*
X85119047Y-72729761D01*
X84976190Y-72777380D01*
X84880952Y-72777380D01*
X84738095Y-72729761D01*
X84642857Y-72634523D01*
X84595238Y-72539285D01*
X84547619Y-72348809D01*
X84547619Y-72205952D01*
X84595238Y-72015476D01*
X84642857Y-71920238D01*
X84738095Y-71825000D01*
X84880952Y-71777380D01*
X84976190Y-71777380D01*
X85119047Y-71825000D01*
X85166666Y-71872619D01*
X85880952Y-71777380D02*
X85880952Y-72491666D01*
X85833333Y-72634523D01*
X85738095Y-72729761D01*
X85595238Y-72777380D01*
X85500000Y-72777380D01*
X86833333Y-72777380D02*
X86357142Y-72777380D01*
X86357142Y-71777380D01*
X87738095Y-72682142D02*
X87690476Y-72729761D01*
X87547619Y-72777380D01*
X87452380Y-72777380D01*
X87309523Y-72729761D01*
X87214285Y-72634523D01*
X87166666Y-72539285D01*
X87119047Y-72348809D01*
X87119047Y-72205952D01*
X87166666Y-72015476D01*
X87214285Y-71920238D01*
X87309523Y-71825000D01*
X87452380Y-71777380D01*
X87547619Y-71777380D01*
X87690476Y-71825000D01*
X87738095Y-71872619D01*
X88452380Y-71777380D02*
X88452380Y-72491666D01*
X88404761Y-72634523D01*
X88309523Y-72729761D01*
X88166666Y-72777380D01*
X88071428Y-72777380D01*
X89404761Y-72777380D02*
X88928571Y-72777380D01*
X88928571Y-71777380D01*
X90309523Y-72682142D02*
X90261904Y-72729761D01*
X90119047Y-72777380D01*
X90023809Y-72777380D01*
X89880952Y-72729761D01*
X89785714Y-72634523D01*
X89738095Y-72539285D01*
X89690476Y-72348809D01*
X89690476Y-72205952D01*
X89738095Y-72015476D01*
X89785714Y-71920238D01*
X89880952Y-71825000D01*
X90023809Y-71777380D01*
X90119047Y-71777380D01*
X90261904Y-71825000D01*
X90309523Y-71872619D01*
X90690476Y-71777380D02*
X90690476Y-71967857D01*
X91071428Y-71777380D02*
X91071428Y-71967857D01*
X92404761Y-72777380D02*
X92309523Y-72729761D01*
X92261904Y-72682142D01*
X92214285Y-72586904D01*
X92214285Y-72301190D01*
X92261904Y-72205952D01*
X92309523Y-72158333D01*
X92404761Y-72110714D01*
X92547619Y-72110714D01*
X92642857Y-72158333D01*
X92690476Y-72205952D01*
X92738095Y-72301190D01*
X92738095Y-72586904D01*
X92690476Y-72682142D01*
X92642857Y-72729761D01*
X92547619Y-72777380D01*
X92404761Y-72777380D01*
X93166666Y-72110714D02*
X93166666Y-72777380D01*
X93166666Y-72205952D02*
X93214285Y-72158333D01*
X93309523Y-72110714D01*
X93452380Y-72110714D01*
X93547619Y-72158333D01*
X93595238Y-72253571D01*
X93595238Y-72777380D01*
X95166666Y-72253571D02*
X94833333Y-72253571D01*
X94833333Y-72777380D02*
X94833333Y-71777380D01*
X95309523Y-71777380D01*
X95690476Y-72682142D02*
X95738095Y-72729761D01*
X95690476Y-72777380D01*
X95642857Y-72729761D01*
X95690476Y-72682142D01*
X95690476Y-72777380D01*
X96119047Y-72729761D02*
X96261904Y-72777380D01*
X96499999Y-72777380D01*
X96595238Y-72729761D01*
X96642857Y-72682142D01*
X96690476Y-72586904D01*
X96690476Y-72491666D01*
X96642857Y-72396428D01*
X96595238Y-72348809D01*
X96499999Y-72301190D01*
X96309523Y-72253571D01*
X96214285Y-72205952D01*
X96166666Y-72158333D01*
X96119047Y-72063095D01*
X96119047Y-71967857D01*
X96166666Y-71872619D01*
X96214285Y-71825000D01*
X96309523Y-71777380D01*
X96547619Y-71777380D01*
X96690476Y-71825000D01*
X97119047Y-72777380D02*
X97119047Y-72110714D01*
X97119047Y-71777380D02*
X97071428Y-71825000D01*
X97119047Y-71872619D01*
X97166666Y-71825000D01*
X97119047Y-71777380D01*
X97119047Y-71872619D01*
X97738095Y-72777380D02*
X97642857Y-72729761D01*
X97595238Y-72634523D01*
X97595238Y-71777380D01*
X98119047Y-72777380D02*
X98119047Y-71777380D01*
X98214285Y-72396428D02*
X98499999Y-72777380D01*
X98499999Y-72110714D02*
X98119047Y-72491666D01*
X99833333Y-72777380D02*
X99738095Y-72729761D01*
X99690476Y-72634523D01*
X99690476Y-71777380D01*
X100642857Y-72777380D02*
X100642857Y-72253571D01*
X100595238Y-72158333D01*
X100499999Y-72110714D01*
X100309523Y-72110714D01*
X100214285Y-72158333D01*
X100642857Y-72729761D02*
X100547619Y-72777380D01*
X100309523Y-72777380D01*
X100214285Y-72729761D01*
X100166666Y-72634523D01*
X100166666Y-72539285D01*
X100214285Y-72444047D01*
X100309523Y-72396428D01*
X100547619Y-72396428D01*
X100642857Y-72348809D01*
X101023809Y-72110714D02*
X101261904Y-72777380D01*
X101499999Y-72110714D02*
X101261904Y-72777380D01*
X101166666Y-73015476D01*
X101119047Y-73063095D01*
X101023809Y-73110714D01*
X102261904Y-72729761D02*
X102166666Y-72777380D01*
X101976190Y-72777380D01*
X101880952Y-72729761D01*
X101833333Y-72634523D01*
X101833333Y-72253571D01*
X101880952Y-72158333D01*
X101976190Y-72110714D01*
X102166666Y-72110714D01*
X102261904Y-72158333D01*
X102309523Y-72253571D01*
X102309523Y-72348809D01*
X101833333Y-72444047D01*
X102738095Y-72777380D02*
X102738095Y-72110714D01*
X102738095Y-72301190D02*
X102785714Y-72205952D01*
X102833333Y-72158333D01*
X102928571Y-72110714D01*
X103023809Y-72110714D01*
M02*
